<svg xmlns="http://www.w3.org/2000/svg" viewBox="0 0 970.37 384.06">
  <defs>
    <style>
      .a {
        fill: #811e68;
      }
    </style>
  </defs>
  <g>
    <path class="a" d="M169.3,230.5a81.42,81.42,0,0,0,8.7-36.9v-2.5c0-.8-.1-1.7-.1-2.5,0-.6-.1-1.3-.1-2,0-.5-.1-1-.1-1.4-.1-.7-.1-1.4-.2-2.1-.2-1.7-.5-3.4-.8-5.1l-.3-1.5c-.2-.9-.4-1.8-.6-2.6a12.09,12.09,0,0,0-.5-1.8,73.94,73.94,0,0,0-2.9-8.7c-.2-.6-.5-1.2-.8-1.9s-.5-1.2-.8-1.8a14.17,14.17,0,0,1-.8-1.8,15.11,15.11,0,0,0-.9-1.8,82,82,0,0,0-15.8-21.2h0c-1.4-1.4-2.8-2.7-4.3-4a73.09,73.09,0,0,0-6.2-4.8l-1.6-1.1-1.6-1.2c-.6-.3-1.1-.7-1.7-1s-1.1-.7-1.7-1a39,39,0,0,0-3.5-1.9,65.8,65.8,0,0,0-7.2-3.2c-1.1-.4-2.2-.8-3.4-1.2-1.4-.5-2.8-.9-4.2-1.3-.6-.2-1.3-.3-1.9-.5a12.91,12.91,0,0,0-2.1-.5c-.7-.1-1.2-.3-1.8-.4a82.42,82.42,0,0,0-73.9,22,69.5,69.5,0,0,1,110.6-84,4.45,4.45,0,0,0,6.3.5l.3-.3L167,39.7a4.38,4.38,0,0,0,.2-6.1A94.84,94.84,0,0,0,22.5,156.2a82.4,82.4,0,0,0-.3,74.3C4,252.8-4.3,283.4,4.1,315.7a92.3,92.3,0,0,0,64,65.7c64.1,18.3,122.6-29.7,122.6-91A94.84,94.84,0,0,0,169.3,230.5ZM38.8,153.1a12.66,12.66,0,0,1,8.2-2.7,10.3,10.3,0,0,1,6.9,2.5,12,12,0,0,1,3.8,6.5l8,26.5,4,13.2,1,3.4H71l1.3-4.2,3.1-9.9L83.1,164l1.2-3.9a16.52,16.52,0,0,1,4.1-7.3,10.14,10.14,0,0,1,7.4-2.5,10.93,10.93,0,0,1,7.5,2.5,14.93,14.93,0,0,1,4,7.4l1.2,3.9,7.6,24.4,3.1,9.9,1.3,4.2h.3l1-3.4,4-13.2,8-26.6a12.18,12.18,0,0,1,3.9-6.5,10.83,10.83,0,0,1,6.9-2.5,13.68,13.68,0,0,1,5.9,1.3,9.41,9.41,0,0,1,4,3.9,12,12,0,0,1,1.4,5.9c0,1.1-.7,4-2.2,8.4l-.6,1.6-12.5,35.3-6.3,17.7a23.39,23.39,0,0,1-3.1,6.1,12.21,12.21,0,0,1-10.5,5.3c-6.5,0-10.8-3.5-13-10.5l-1.2-3.7L98,195.6l-1.5-4.8-.6-1.8h-.3l-.6,1.8-1.5,4.8-8.4,26.2h0l-1.2,3.6c-2.2,7-6.6,10.5-13,10.5a11.77,11.77,0,0,1-8.4-3,22,22,0,0,1-2-2.3,27.28,27.28,0,0,1-3.2-6.1L51,206.7,38.6,171.5l-.5-1.3c-1.6-4.7-2.4-8.2-2.4-10.7A8,8,0,0,1,38.8,153.1ZM93.1,360a69.44,69.44,0,0,1-66.9-72,70.15,70.15,0,0,1,11.6-36,82.21,82.21,0,0,0,115.8,0A69.44,69.44,0,0,1,93.1,360Z" transform="translate(-0.81 -1.28)"/>
    <g>
      <path class="a" d="M268.74,201H211.4q1.36,9.59,8.4,14.52t17,4.93a25.38,25.38,0,0,0,10.4-1.92q4.29-1.92,10.73-5.43t9.36-3.52a9.72,9.72,0,0,1,5.34,1.69,12.88,12.88,0,0,1,4.16,4.34,10.9,10.9,0,0,1,1.55,5.57q0,4.2-3.88,8.31a36.82,36.82,0,0,1-10.32,7.35,67.3,67.3,0,0,1-14.52,5.2,64.74,64.74,0,0,1-15.29,2,51.58,51.58,0,0,1-26.3-6.71,46.06,46.06,0,0,1-17.89-18.54,55.69,55.69,0,0,1-6.3-26.62,54.71,54.71,0,0,1,3.6-19.54,55.66,55.66,0,0,1,10-16.89,45.64,45.64,0,0,1,34.65-15.7,44.84,44.84,0,0,1,19.58,4.33,47.63,47.63,0,0,1,15.39,11.46A55.29,55.29,0,0,1,277,171.68,45.64,45.64,0,0,1,280.52,189Q280.52,201,268.74,201Zm-58-18h42.83q-1.09-9.23-6.76-14.88t-14.7-5.66a19.59,19.59,0,0,0-14.43,5.75A24.86,24.86,0,0,0,210.76,183.05Z" transform="translate(-0.81 -1.28)"/>
      <path class="a" d="M382.15,158.76v66.57q0,7.84-2.19,12.69t-10.78,4.84c-3.65,0-6.47-1-8.44-2.86a17.72,17.72,0,0,1-4.43-8.51Q345.63,244,330.65,244.05A40.6,40.6,0,0,1,308,237.38a45.36,45.36,0,0,1-16-18.49,59.78,59.78,0,0,1-5.8-26.71,58.61,58.61,0,0,1,5.94-26.34,47.74,47.74,0,0,1,16.16-18.9,39.16,39.16,0,0,1,22.37-6.89,34.57,34.57,0,0,1,14.43,3.1,27.69,27.69,0,0,1,11.23,9.22,12,12,0,0,1,4.24-8.08,12.92,12.92,0,0,1,8.63-3.15q8.58,0,10.78,4.89T382.15,158.76Zm-69,33.47a36.14,36.14,0,0,0,2.42,13.12,23.83,23.83,0,0,0,7.21,10.16,17.91,17.91,0,0,0,11.64,3.88,17.42,17.42,0,0,0,15.34-8.18,33.28,33.28,0,0,0,5.48-19,37.74,37.74,0,0,0-2.33-13.13,24.07,24.07,0,0,0-7.12-10.38,17.11,17.11,0,0,0-11.37-4,17.88,17.88,0,0,0-11.64,4,23.79,23.79,0,0,0-7.26,10.38A37.66,37.66,0,0,0,313.12,192.23Z" transform="translate(-0.81 -1.28)"/>
      <path class="a" d="M397.12,227.88V154.66q0-6.39,4.16-10a14.37,14.37,0,0,1,9.63-3.56q13.15,0,13.15,11.23h.36a29.89,29.89,0,0,1,8.4-8.58,19.62,19.62,0,0,1,10.51-2.65,12.83,12.83,0,0,1,9.13,3.75q3.92,3.74,3.92,10.68,0,4-2.05,6.12a16.57,16.57,0,0,1-5.62,3.56q-3.56,1.45-8.4,3.38a50.31,50.31,0,0,0-12.14,7.25q-4.11,3.62-4.11,10.73v41.27a17,17,0,0,1-1.74,7.81,12.75,12.75,0,0,1-4.84,5.3,13.22,13.22,0,0,1-6.94,1.87,12.4,12.4,0,0,1-9.72-4.15A15.71,15.71,0,0,1,397.12,227.88Z" transform="translate(-0.81 -1.28)"/>
      <path class="a" d="M538.83,201H481.49q1.38,9.59,8.4,14.52t17,4.93a25.46,25.46,0,0,0,10.41-1.92q4.29-1.92,10.72-5.43c4.3-2.34,7.41-3.52,9.36-3.52a9.72,9.72,0,0,1,5.34,1.69,12.88,12.88,0,0,1,4.16,4.34,10.9,10.9,0,0,1,1.55,5.57q0,4.2-3.88,8.31a36.82,36.82,0,0,1-10.32,7.35,67.4,67.4,0,0,1-14.51,5.2,64.89,64.89,0,0,1-15.3,2,51.58,51.58,0,0,1-26.3-6.71,46.06,46.06,0,0,1-17.89-18.54,55.69,55.69,0,0,1-6.3-26.62,54.71,54.71,0,0,1,3.6-19.54,55.66,55.66,0,0,1,10.05-16.89,45.64,45.64,0,0,1,34.65-15.7,44.84,44.84,0,0,1,19.58,4.33,47.63,47.63,0,0,1,15.39,11.46,55.29,55.29,0,0,1,9.86,15.84A45.45,45.45,0,0,1,550.61,189Q550.61,201,538.83,201Zm-58-18h42.83q-1.09-9.23-6.76-14.88t-14.7-5.66a19.6,19.6,0,0,0-14.43,5.75A24.86,24.86,0,0,0,480.85,183.05Z" transform="translate(-0.81 -1.28)"/>
      <path class="a" d="M560.2,267.6V156.12q0-6.68,3.7-10.82a12.38,12.38,0,0,1,9.72-4.16q10.77,0,13.52,11.23a23.76,23.76,0,0,1,10.68-9.17,35.57,35.57,0,0,1,14.88-3.15q13.78,0,23.61,7.57a47.12,47.12,0,0,1,14.83,19.82,67.6,67.6,0,0,1,5,25.93,57,57,0,0,1-5.53,24.52,47.36,47.36,0,0,1-15.75,18.94,39.12,39.12,0,0,1-23.1,7.22,36.87,36.87,0,0,1-12.87-2.41,38.6,38.6,0,0,1-11.78-7v32.93a16.86,16.86,0,0,1-1.74,7.67,12.75,12.75,0,0,1-4.84,5.34,13.24,13.24,0,0,1-6.94,1.87,12.5,12.5,0,0,1-9.72-4.07Q560.19,274.35,560.2,267.6Zm26.94-76.29a35.75,35.75,0,0,0,5.43,19.49,18.43,18.43,0,0,0,27.07,4.57,24.39,24.39,0,0,0,7.22-10.2,35.78,35.78,0,0,0,2.37-12.94,36.93,36.93,0,0,0-2.37-13.08,24.86,24.86,0,0,0-7.17-10.38,17.16,17.16,0,0,0-11.46-4.07,18.1,18.1,0,0,0-11.64,3.8,22.67,22.67,0,0,0-7.13,9.83A35.78,35.78,0,0,0,587.14,191.31Z" transform="translate(-0.81 -1.28)"/>
      <path class="a" d="M711.86,140.05a44.92,44.92,0,0,1,19.41,4.24,47.19,47.19,0,0,1,15.43,11.55,53.41,53.41,0,0,1,9.95,16.62,55.45,55.45,0,0,1,3.52,19.72,56.84,56.84,0,0,1-3.52,19.95,52.08,52.08,0,0,1-9.77,16.53,45.28,45.28,0,0,1-15.34,11.23,46.77,46.77,0,0,1-19.68,4.16,45.83,45.83,0,0,1-25-7,47.44,47.44,0,0,1-17.12-18.9,56.46,56.46,0,0,1-6.07-26,55.34,55.34,0,0,1,3.52-19.49,53.54,53.54,0,0,1,10-16.85,46.58,46.58,0,0,1,15.43-11.59A44.73,44.73,0,0,1,711.86,140.05Zm0,24.65a17.88,17.88,0,0,0-11.64,4A23.62,23.62,0,0,0,693,179.06a37.66,37.66,0,0,0-2.37,13.17A35.93,35.93,0,0,0,693,205.35a23.83,23.83,0,0,0,7.21,10.16,19.55,19.55,0,0,0,23.38,0,23.83,23.83,0,0,0,7.21-10.16,36.14,36.14,0,0,0,2.42-13.12,37.32,37.32,0,0,0-2.37-13.13,24.35,24.35,0,0,0-7.22-10.38A17.81,17.81,0,0,0,711.86,164.7Z" transform="translate(-0.81 -1.28)"/>
      <path class="a" d="M784.64,100.78a14.23,14.23,0,0,1,7.49,2.1,16.43,16.43,0,0,1,5.56,5.53,13.5,13.5,0,0,1,2.1,7.17,15.23,15.23,0,0,1-4.42,10.91,14.43,14.43,0,0,1-21.28-.14,15.07,15.07,0,0,1-4.61-10.77,14.06,14.06,0,0,1,4.61-10.28A14.66,14.66,0,0,1,784.64,100.78Zm-13.43,127.1V156.12a15.68,15.68,0,0,1,3.7-10.82,12.41,12.41,0,0,1,9.73-4.16,13.18,13.18,0,0,1,7,1.87,12.93,12.93,0,0,1,4.8,5.3,17.1,17.1,0,0,1,1.73,7.81v71.76a17.1,17.1,0,0,1-1.73,7.81,12.82,12.82,0,0,1-4.84,5.3,13.27,13.27,0,0,1-6.94,1.87,12.4,12.4,0,0,1-9.73-4.15A15.71,15.71,0,0,1,771.21,227.88Z" transform="translate(-0.81 -1.28)"/>
      <path class="a" d="M813.13,227.88V156.12q0-6.68,3.69-10.82a12.41,12.41,0,0,1,9.73-4.16,12.88,12.88,0,0,1,8.44,2.65,11.29,11.29,0,0,1,4,7.3q7.86-11,25.94-11a40.8,40.8,0,0,1,19,4.33A31.83,31.83,0,0,1,897,156.89q4.74,8.18,4.75,19.41v51.58a17,17,0,0,1-1.74,7.81,12.82,12.82,0,0,1-4.84,5.3,13.24,13.24,0,0,1-6.94,1.87,12.37,12.37,0,0,1-9.72-4.15q-3.7-4.16-3.7-10.83V181q0-9-4.89-13.74t-12.73-4.7a17.29,17.29,0,0,0-9.23,2.42,15.58,15.58,0,0,0-5.93,6.53,21.33,21.33,0,0,0-2,9.49v46.93a17.1,17.1,0,0,1-1.73,7.81,12.82,12.82,0,0,1-4.84,5.3,13.27,13.27,0,0,1-6.94,1.87,12.4,12.4,0,0,1-9.73-4.15Q813.13,234.56,813.13,227.88Z" transform="translate(-0.81 -1.28)"/>
      <path class="a" d="M923.7,227.87V165.8h-6A11.14,11.14,0,0,1,905.89,154a11.51,11.51,0,0,1,11.78-11.73h6V126.17q0-6.67,3.7-10.82a12.38,12.38,0,0,1,9.72-4.16,13.19,13.19,0,0,1,7,1.87,12.91,12.91,0,0,1,4.79,5.3,17,17,0,0,1,1.73,7.81v16.07h7.67a14.5,14.5,0,0,1,9.23,2.86q3.65,2.86,3.65,8.87t-3.61,8.91a14.28,14.28,0,0,1-9.27,2.92h-7.67v62.07a17,17,0,0,1-1.73,7.81,12.79,12.79,0,0,1-4.84,5.31,13.24,13.24,0,0,1-6.94,1.87,12.38,12.38,0,0,1-9.72-4.16Q923.7,234.55,923.7,227.87Z" transform="translate(-0.81 -1.28)"/>
    </g>
  </g>
</svg>
