<?xml version="1.0" encoding="utf-8"?>
<!-- Generator: Adobe Illustrator 24.2.1, SVG Export Plug-In . SVG Version: 6.00 Build 0)  -->
<svg version="1.1" id="Livello_1" xmlns="http://www.w3.org/2000/svg" xmlns:xlink="http://www.w3.org/1999/xlink" x="0px" y="0px"
	 viewBox="0 0 970.4 384.1" style="enable-background:new 0 0 970.4 384.1;" xml:space="preserve">
<style type="text/css">
	.st0{fill:#FFFFFF;}
</style>
<g>
	<path class="st0" d="M168.5,229.2c5.8-11.4,8.7-24.1,8.7-36.9v-2.5c0-0.8-0.1-1.7-0.1-2.5c0-0.6-0.1-1.3-0.1-2c0-0.5-0.1-1-0.1-1.4
		c-0.1-0.7-0.1-1.4-0.2-2.1c-0.2-1.7-0.5-3.4-0.8-5.1l-0.3-1.5c-0.2-0.9-0.4-1.8-0.6-2.6c-0.1-0.6-0.3-1.2-0.5-1.8
		c-0.8-3-1.8-5.9-2.9-8.7c-0.2-0.6-0.5-1.2-0.8-1.9s-0.5-1.2-0.8-1.8c-0.3-0.6-0.6-1.2-0.8-1.8c-0.3-0.6-0.6-1.2-0.9-1.8
		c-4.1-7.9-9.4-15-15.8-21.2l0,0c-1.4-1.4-2.8-2.7-4.3-4c-2-1.7-4-3.3-6.2-4.8l-1.6-1.1l-1.6-1.2c-0.6-0.3-1.1-0.7-1.7-1
		s-1.1-0.7-1.7-1c-1.1-0.7-2.3-1.3-3.5-1.9c-2.3-1.2-4.7-2.3-7.2-3.2c-1.1-0.4-2.2-0.8-3.4-1.2c-1.4-0.5-2.8-0.9-4.2-1.3
		c-0.6-0.2-1.3-0.3-1.9-0.5c-0.7-0.2-1.4-0.4-2.1-0.5c-0.7-0.1-1.2-0.3-1.8-0.4c-26.8-5.4-54.4,2.9-73.9,22
		C15.5,102,23.2,58.7,54.7,36.8c29.7-20.7,70.3-15.1,93.3,12.8c1.6,1.9,4.4,2.1,6.3,0.5c0,0,0,0,0,0l0.3-0.3l11.6-11.3
		c1.7-1.6,1.8-4.3,0.2-6.1C131.9-7.1,72-11.1,32.6,23.5c-38.5,33.7-43.3,91.9-10.9,131.5c-11.9,23.3-12,50.9-0.3,74.3
		C3.2,251.5-5.1,282.1,3.3,314.4c8.2,31.7,32.5,56.7,64,65.7c64.1,18.3,122.6-29.7,122.6-91C189.9,267.3,182.3,246.1,168.5,229.2z
		 M38,151.8c2.3-1.8,5.2-2.8,8.2-2.7c2.5,0,5,0.8,6.9,2.5c1.9,1.7,3.3,4,3.8,6.5l8,26.5l4,13.2l1,3.4h0.3l1.3-4.2l3.1-9.9l7.7-24.4
		l1.2-3.9c0.7-2.7,2.1-5.3,4.1-7.3c2-1.8,4.7-2.7,7.4-2.5c2.7-0.1,5.4,0.8,7.5,2.5c2,2,3.4,4.6,4,7.4l1.2,3.9l7.6,24.4l3.1,9.9
		l1.3,4.2h0.3l1-3.4l4-13.2l8-26.6c0.6-2.5,1.9-4.8,3.9-6.5c1.9-1.6,4.4-2.5,6.9-2.5c2,0,4.1,0.4,5.9,1.3c1.7,0.9,3.1,2.2,4,3.9
		c1,1.8,1.4,3.8,1.4,5.9c0,1.1-0.7,4-2.2,8.4l-0.6,1.6l-12.5,35.3l-6.3,17.7c-0.7,2.2-1.8,4.2-3.1,6.1c-2.4,3.4-6.3,5.4-10.5,5.3
		c-6.5,0-10.8-3.5-13-10.5l-1.2-3.7l-8.5-26.1l-1.5-4.8l-0.6-1.8h-0.3l-0.6,1.8l-1.5,4.8l-8.4,26.2l0,0l-1.2,3.6
		c-2.2,7-6.6,10.5-13,10.5c-3.1,0.1-6.1-0.9-8.4-3c-0.7-0.7-1.4-1.5-2-2.3c-1.3-1.9-2.4-3.9-3.2-6.1l-6.3-17.8l-12.4-35.2l-0.5-1.3
		c-1.6-4.7-2.4-8.2-2.4-10.7C34.9,155.7,36,153.4,38,151.8z M92.3,358.7C54,357.3,24,325.2,25.4,286.8c0,0,0-0.1,0-0.1
		c0.5-12.8,4.5-25.3,11.6-36c32.1,31.8,83.7,31.8,115.8,0c21.3,31.9,12.8,75-19.1,96.3C121.5,355.2,107,359.3,92.3,358.7z"/>
	<g>
		<path class="st0" d="M267.9,199.7h-57.3c0.9,6.4,3.7,11.2,8.4,14.5c4.7,3.3,10.4,4.9,17,4.9c3.6,0.1,7.1-0.6,10.4-1.9
			c2.9-1.3,6.4-3.1,10.7-5.4c4.3-2.3,7.4-3.5,9.4-3.5c1.9,0,3.8,0.6,5.3,1.7c1.7,1.1,3.1,2.6,4.2,4.3c1,1.7,1.5,3.6,1.5,5.6
			c0,2.8-1.3,5.6-3.9,8.3c-3,3-6.5,5.5-10.3,7.4c-4.6,2.3-9.5,4-14.5,5.2c-5,1.3-10.1,1.9-15.3,2c-9.2,0.2-18.3-2.2-26.3-6.7
			c-7.6-4.4-13.8-10.8-17.9-18.5c-4.3-8.2-6.4-17.4-6.3-26.6c0-6.7,1.2-13.3,3.6-19.5c2.3-6.2,5.7-11.9,10-16.9
			c8.7-10,21.4-15.8,34.7-15.7c6.8-0.1,13.5,1.4,19.6,4.3c5.9,2.7,11.1,6.6,15.4,11.5c4.2,4.7,7.6,10,9.9,15.8
			c2.3,5.5,3.5,11.4,3.5,17.3C279.7,195.7,275.8,199.7,267.9,199.7z M209.9,181.7h42.8c-0.7-6.2-3-11.1-6.8-14.9s-8.7-5.7-14.7-5.7
			c-5.4-0.2-10.6,1.9-14.4,5.8C213,171,210.5,176.2,209.9,181.7L209.9,181.7z"/>
		<path class="st0" d="M381.3,157.5V224c0,5.2-0.7,9.5-2.2,12.7c-1.5,3.2-5.1,4.8-10.8,4.8c-3.6,0-6.5-1-8.4-2.9
			c-2.2-2.4-3.8-5.3-4.4-8.5c-7.1,8.3-15.7,12.5-25.7,12.6c-8,0.1-15.9-2.3-22.6-6.7c-6.9-4.6-12.5-11-16-18.5
			c-4-8.3-6-17.5-5.8-26.7c-0.1-9.1,1.9-18.1,5.9-26.3c3.6-7.6,9.2-14.1,16.2-18.9c6.6-4.5,14.4-6.9,22.4-6.9c5,0,9.9,1,14.4,3.1
			c4.5,2,8.4,5.2,11.2,9.2c0.3-3.1,1.8-6.1,4.2-8.1c2.4-2.1,5.5-3.2,8.6-3.1c5.7,0,9.3,1.6,10.8,4.9
			C380.6,148,381.4,152.3,381.3,157.5z M312.3,190.9c0,4.5,0.8,8.9,2.4,13.1c1.5,4,3.9,7.5,7.2,10.2c3.3,2.6,7.4,4,11.6,3.9
			c6.2,0.2,12-2.9,15.3-8.2c3.7-5.6,5.6-12.3,5.5-19c0-4.5-0.8-8.9-2.3-13.1c-1.4-4-3.9-7.6-7.1-10.4c-3.2-2.7-7.2-4.1-11.4-4
			c-4.2-0.1-8.4,1.3-11.6,4c-3.3,2.7-5.8,6.3-7.3,10.4C313.1,182,312.3,186.5,312.3,190.9L312.3,190.9z"/>
		<path class="st0" d="M396.3,226.6v-73.2c0-4.3,1.4-7.6,4.2-10c2.7-2.3,6.1-3.6,9.6-3.6c8.8,0,13.1,3.7,13.1,11.2h0.4
			c2.2-3.4,5-6.3,8.4-8.6c3.2-1.9,6.8-2.8,10.5-2.6c3.4,0,6.7,1.3,9.1,3.8c2.6,2.5,3.9,6.1,3.9,10.7c0,2.7-0.7,4.7-2,6.1
			c-1.6,1.6-3.5,2.8-5.6,3.6c-2.4,1-5.2,2.1-8.4,3.4c-4.4,1.8-8.5,4.3-12.1,7.3c-2.7,2.4-4.1,6-4.1,10.7v41.3c0,2.7-0.5,5.4-1.7,7.8
			c-1.1,2.2-2.8,4-4.8,5.3c-2.1,1.3-4.5,1.9-6.9,1.9c-3.7,0.1-7.3-1.4-9.7-4.1C397.5,234.4,396.1,230.5,396.3,226.6z"/>
		<path class="st0" d="M538,199.7h-57.3c0.9,6.4,3.7,11.2,8.4,14.5c4.7,3.3,10.3,4.9,17,4.9c3.6,0.1,7.1-0.6,10.4-1.9
			c2.9-1.3,6.4-3.1,10.7-5.4c4.3-2.3,7.4-3.5,9.4-3.5c1.9,0,3.8,0.6,5.3,1.7c1.7,1.1,3.1,2.6,4.2,4.3c1,1.7,1.5,3.6,1.5,5.6
			c0,2.8-1.3,5.6-3.9,8.3c-3,3-6.5,5.5-10.3,7.4c-4.6,2.3-9.5,4-14.5,5.2c-5,1.3-10.1,1.9-15.3,2c-9.2,0.2-18.3-2.2-26.3-6.7
			c-7.6-4.4-13.8-10.8-17.9-18.5c-4.3-8.2-6.4-17.4-6.3-26.6c0-6.7,1.2-13.3,3.6-19.5c2.3-6.2,5.7-11.9,10-16.9
			c8.7-10,21.4-15.8,34.6-15.7c6.8-0.1,13.5,1.4,19.6,4.3c5.9,2.7,11.1,6.6,15.4,11.5c4.2,4.7,7.5,10,9.9,15.8
			c2.3,5.5,3.5,11.4,3.6,17.3C549.8,195.7,545.9,199.7,538,199.7z M480,181.7h42.8c-0.7-6.2-3-11.1-6.8-14.9s-8.7-5.7-14.7-5.7
			c-5.4-0.2-10.6,1.9-14.4,5.8C483,171,480.6,176.2,480,181.7L480,181.7z"/>
		<path class="st0" d="M559.4,266.3V154.8c0-4.5,1.2-8.1,3.7-10.8c2.5-2.8,6-4.3,9.7-4.2c7.2,0,11.7,3.7,13.5,11.2
			c2.6-4.1,6.3-7.3,10.7-9.2c4.7-2.1,9.8-3.2,14.9-3.1c9.2,0,17.1,2.5,23.6,7.6c6.6,5.2,11.7,12,14.8,19.8c3.4,8.2,5.1,17,5,25.9
			c0,8.5-1.9,16.9-5.5,24.5c-3.5,7.6-8.9,14.1-15.8,18.9c-6.7,4.8-14.8,7.3-23.1,7.2c-4.4,0-8.8-0.8-12.9-2.4c-4.3-1.6-8.3-4-11.8-7
			v32.9c0,2.7-0.6,5.3-1.7,7.7c-1.1,2.2-2.7,4.1-4.8,5.3c-2.1,1.3-4.5,1.9-6.9,1.9c-3.7,0.1-7.2-1.3-9.7-4.1
			C560.6,274.4,559.4,270.8,559.4,266.3z M586.3,190c-0.1,6.9,1.8,13.7,5.4,19.5c5.4,8.6,16.8,11.2,25.4,5.7
			c0.6-0.4,1.1-0.8,1.6-1.2c3.3-2.7,5.7-6.2,7.2-10.2c1.6-4.1,2.4-8.5,2.4-12.9c0-4.5-0.8-8.9-2.4-13.1c-1.5-4-3.9-7.6-7.2-10.4
			c-3.2-2.7-7.3-4.2-11.5-4.1c-4.2-0.1-8.3,1.2-11.6,3.8c-3.2,2.6-5.7,6-7.1,9.8C587.1,181.2,586.3,185.6,586.3,190z"/>
		<path class="st0" d="M711,138.8c6.7-0.1,13.3,1.4,19.4,4.2c5.9,2.7,11.1,6.7,15.4,11.6c4.3,4.9,7.7,10.5,10,16.6
			c2.4,6.3,3.6,13,3.5,19.7c0,6.8-1.2,13.6-3.5,19.9c-2.2,6.1-5.5,11.7-9.8,16.5c-4.3,4.8-9.5,8.6-15.3,11.2
			c-6.2,2.8-12.9,4.2-19.7,4.2c-8.8,0.1-17.5-2.3-25-7c-7.3-4.6-13.2-11.2-17.1-18.9c-4.1-8.1-6.2-17-6.1-26
			c0-6.7,1.2-13.3,3.5-19.5c2.3-6.2,5.7-11.9,10-16.9c4.3-4.9,9.5-8.8,15.4-11.6C697.8,140.1,704.4,138.7,711,138.8z M711,163.4
			c-4.2-0.1-8.4,1.3-11.6,4c-3.3,2.7-5.8,6.3-7.2,10.4c-1.6,4.2-2.4,8.7-2.4,13.2c0,4.5,0.8,8.9,2.4,13.1c1.5,4,3.9,7.5,7.2,10.2
			c6.9,5.2,16.4,5.2,23.4,0c3.3-2.7,5.8-6.2,7.2-10.2c1.6-4.2,2.4-8.6,2.4-13.1c0-4.5-0.8-8.9-2.4-13.1c-1.5-4-3.9-7.6-7.2-10.4
			C719.5,164.7,715.3,163.3,711,163.4z"/>
		<path class="st0" d="M783.8,99.5c2.6,0,5.2,0.7,7.5,2.1c2.3,1.4,4.2,3.3,5.6,5.5c1.4,2.1,2.1,4.6,2.1,7.2c0,4.1-1.5,8-4.4,10.9
			c-5.4,5.8-14.6,6.2-20.4,0.8c-0.3-0.3-0.6-0.6-0.9-0.9c-2.9-2.8-4.6-6.7-4.6-10.8c0-3.9,1.7-7.6,4.6-10.3
			C776,101.1,779.8,99.5,783.8,99.5z M770.4,226.6v-71.8c-0.2-3.9,1.1-7.8,3.7-10.8c2.5-2.8,6-4.3,9.7-4.2c2.5,0,4.9,0.6,7,1.9
			c2.1,1.3,3.7,3.1,4.8,5.3c1.2,2.4,1.8,5.1,1.7,7.8v71.8c0,2.7-0.5,5.4-1.7,7.8c-1.1,2.2-2.8,4-4.8,5.3c-2.1,1.2-4.5,1.9-6.9,1.9
			c-3.7,0.1-7.3-1.4-9.7-4.1C771.6,234.4,770.2,230.5,770.4,226.6z"/>
		<path class="st0" d="M812.3,226.6v-71.8c0-4.5,1.2-8.1,3.7-10.8c2.5-2.8,6-4.3,9.7-4.2c3-0.1,6,0.8,8.4,2.6c2.2,1.8,3.6,4.4,4,7.3
			c5.2-7.3,13.9-11,25.9-11c6.6-0.1,13.1,1.4,19,4.3c5.5,2.8,10,7.1,13.1,12.5c3.2,5.5,4.7,11.9,4.8,19.4v51.6
			c0,2.7-0.5,5.4-1.7,7.8c-1.1,2.2-2.8,4-4.8,5.3c-2.1,1.3-4.5,1.9-6.9,1.9c-3.7,0.1-7.3-1.4-9.7-4.1c-2.5-2.8-3.7-6.4-3.7-10.8
			v-46.9c0-6-1.6-10.6-4.9-13.7s-7.5-4.7-12.7-4.7c-3.2-0.1-6.4,0.8-9.2,2.4c-2.6,1.6-4.6,3.8-5.9,6.5c-1.4,3-2.1,6.2-2,9.5v46.9
			c0,2.7-0.5,5.4-1.7,7.8c-1.1,2.2-2.8,4-4.8,5.3c-2.1,1.2-4.5,1.9-6.9,1.9c-3.7,0.1-7.3-1.4-9.7-4.1
			C813.5,234.7,812.3,231.1,812.3,226.6z"/>
		<path class="st0" d="M922.9,226.6v-62.1h-6c-6.1,0.4-11.4-4.3-11.8-10.4c0-0.5,0-0.9,0-1.4c-0.1-6.4,4.9-11.6,11.3-11.7
			c0.2,0,0.3,0,0.5,0h6v-16.1c0-4.4,1.2-8.1,3.7-10.8c2.5-2.8,6-4.3,9.7-4.2c2.5,0,4.9,0.6,7,1.9c2.1,1.3,3.7,3.1,4.8,5.3
			c1.2,2.4,1.8,5.1,1.7,7.8V141h7.7c3.3-0.1,6.6,0.9,9.2,2.9c2.4,1.9,3.7,4.9,3.7,8.9s-1.2,7-3.6,8.9c-2.7,2-5.9,3.1-9.3,2.9h-7.7
			v62.1c0.1,2.7-0.5,5.4-1.7,7.8c-1.1,2.2-2.8,4-4.8,5.3c-2.1,1.3-4.5,1.9-6.9,1.9c-3.7,0.1-7.3-1.4-9.7-4.2
			C924.1,234.7,922.9,231,922.9,226.6z"/>
	</g>
</g>
</svg>
